{"title":"Dicte.S03E01.DANISH.720p50.HDTV-z97","uid":15626400,"size":928809416,"categoryP":"video","categoryS":"tv_shows","magnet":"?xt=urn:btih:e7705a6100f57136b76d278e5c6f73a7bedabc82&amp;dn=Dicte.S03E01.DANISH.720p50.HDTV-z97&amp;tr=udp%3A%2F%2Ftracker.leechers-paradise.org%3A6969&amp;tr=udp%3A%2F%2Fzer0day.ch%3A1337&amp;tr=udp%3A%2F%2Fopen.demonii.com%3A1337&amp;tr=udp%3A%2F%2Ftracker.coppersurfer.tk%3A6969&amp;tr=udp%3A%2F%2Fexodus.desync.com%3A6969","seeders":18,"leechers":2,"uploader":"48848448","files":2,"time":1471914034,"description":"______ _____  ______\r\n                       |___  /|  _  ||___  /\r\n                          / / | |_| |   / / \r\n                         / /  ____ |  / /  \r\n                       ./ /___.___/ /./ /   \r\n                       _____/____/ _/   \r\n\r\n\r\n                         RELEASE NOTES                         \r\n▄▄▄▄▄▄▄▄▄▄▄▄▄▄▄▄▄▄▄▄▄▄▄▄▄▄▄▄▄▄▄▄▄▄▄▄▄▄▄▄▄▄▄▄▄▄▄▄▄▄▄▄▄▄▄▄▄▄▄▄▄▄▄▄▄\r\n\r\n                 Dicte - Season 3 Episode 1\r\n            \r\niMDB url                       : www.imdb.com/title/tt2025899/\r\niMDB Rating                    : 7.2/10 from 1074 users\r\nRelease                        : 2016 - August 22nd\r\nGenre                          : Krimi, Drama, Familie\r\nSource                         : DVB-C / 720p / 50 FPS\r\nSubs                           : Hardcoded where needed\r\n\r\n                         PLOT SUMMARY                     \r\n▄▄▄▄▄▄▄▄▄▄▄▄▄▄▄▄▄▄▄▄▄▄▄▄▄▄▄▄▄▄▄▄▄▄▄▄▄▄▄▄▄▄▄▄▄▄▄▄▄▄▄▄▄▄▄▄▄▄▄▄▄▄▄▄▄▄\r\n\r\nDicte har sagt sit job op, giftet sig med Bo og slaaet sig ned med\r\nambitionen om at skrive en bog. Dagen efter deres bryllup tager Bo\r\npaa en fotoopgave til Libanon. En opgave, der pludselig tager en\r\nmarkant drejning, og Dicte faar et uventet og meget ubehageligt\r\nopkald. Om aftenen staar Dictes bedste veninde, Anne, klar med\r\ndyne og roedvin, men Dicte kan ikke overskue Annes hverdags-\r\nproblemer samtidigt med, at hun ikke maa fortaelle om Bos situation.\r\n\r\n Iben Hjejle, Laerke Winther Andersen, Dar Salim\r\n\r\n                      RELEASE INFORMATION                 \r\n▄▄▄▄▄▄▄▄▄▄▄▄▄▄▄▄▄▄▄▄▄▄▄▄▄▄▄▄▄▄▄▄▄▄▄▄▄▄▄▄▄▄▄▄▄▄▄▄▄▄▄▄▄▄▄▄▄▄▄▄▄▄▄▄▄▄\r\n\r\nVideo\r\nID                             : 1\r\nFormat                         : AVC\r\nFormat/Info                    : Advanced Video Codec\r\nFormat profile                 :   \r\nFormat settings, CABAC         : Yes\r\nFormat settings, ReFrames      : 5 frames\r\nCodec ID                       : V_MPEG4/ISO/AVC\r\nDuration                       : 43mn 28s\r\nBit rate                       : 2 343 Kbps\r\nWidth                          : 1 280 pixels\r\nHeight                         : 720 pixels\r\nDisplay aspect ratio           : 16:9\r\nFrame rate mode                : Constant\r\nFrame rate                     : 50.000 fps\r\nColor space                    : YUV\r\nChroma subsampling             : 4:2:0\r\nBit depth                      : 8 bits\r\nScan type                      : Progressive\r\nBits/(Pixel*Frame)             : 0.051\r\nStream size                    : 729 MiB (82%)\r\nLanguage                       : Danish\r\n\r\nAudio\r\nID                             : 2\r\nFormat                         : AC-3\r\nFormat/Info                    : Audio Coding 3\r\nMode extension                 : CM (complete main)\r\nFormat settings, Endianness    : Big\r\nCodec ID                       : A_AC3\r\nDuration                       : 43mn 28s\r\nBit rate mode                  : Constant\r\nBit rate                       : 448 Kbps\r\nChannel(s)                     : 6 channels\r\nChannel positions              : Front: L C R, Side: L R, LFE\r\nSampling rate                  : 48.0 KHz\r\nCompression mode               : Lossy\r\nStream size                    : 139 MiB (16%)\r\nLanguage                       : Danish\r\nDefault                        : Yes\r\nForced                         : No","torrent":{"xt":"urn:btih:e7705a6100f57136b76d278e5c6f73a7bedabc82","amp;dn":"Dicte.S03E01.DANISH.720p50.HDTV-z97","amp;tr":["udp%3A%2F%2Ftracker.leechers-paradise.org%3A6969","udp%3A%2F%2Fzer0day.ch%3A1337","udp%3A%2F%2Fopen.demonii.com%3A1337","udp%3A%2F%2Ftracker.coppersurfer.tk%3A6969","udp%3A%2F%2Fexodus.desync.com%3A6969"],"infoHash":"e7705a6100f57136b76d278e5c6f73a7bedabc82","infoHashBuffer":{"type":"Buffer","data":[231,112,90,97,0,245,113,54,183,109,39,142,92,111,115,167,190,218,188,130]},"announce":[],"urlList":[]}}